<svg width="234" height="235" viewBox="0 0 234 235" fill="none" xmlns="http://www.w3.org/2000/svg">
<g id="Group" filter="url(#filter0_d_410_1440)">
<g id="Group_2">
<g id="Group_3">
<g id="Group_4">
<path id="Vector" d="M192.791 206.079H190.576V208.293H192.791V206.079Z" fill="#141F42"/>
<path id="Vector_2" d="M206.219 206.079H204.004V208.293H206.219V206.079Z" fill="#141F42"/>
</g>
<path id="Vector_3" d="M209.679 206.494H186.977C186.284 206.494 185.869 205.941 185.869 205.387V157.094C185.869 156.402 186.423 155.987 186.977 155.987H209.679C210.371 155.987 210.787 156.541 210.787 157.094V205.387C210.925 205.941 210.371 206.494 209.679 206.494Z" fill="#02385D"/>
<g id="Group_5">
<g id="Group_6">
<path id="Vector_4" d="M204.557 159.723H203.727V160.692H204.557V159.723Z" fill="#91B9D7"/>
<path id="Vector_5" d="M206.08 159.723H205.249V160.692H206.08V159.723Z" fill="#177BAC"/>
<path id="Vector_6" d="M207.464 159.723H206.634V160.692H207.464V159.723Z" fill="#F05C4F"/>
</g>
<path id="Vector_7" opacity="0.7" d="M202.481 159.17H189.191V160.969H202.481V159.17Z" fill="#33769E"/>
</g>
<g id="Group_7">
<path id="Vector_8" opacity="0.7" d="M207.464 183.662H189.191V203.727H207.464V183.662Z" fill="#33769E"/>
<path id="Vector_9" d="M200.266 199.16C200.266 200.267 199.435 201.098 198.328 201.098C197.22 201.098 196.39 200.267 196.39 199.16C196.39 198.053 197.22 197.223 198.328 197.223C199.435 197.223 200.266 198.053 200.266 199.16Z" fill="#02385D"/>
</g>
</g>
<g id="Group_8">
<path id="Vector_10" d="M49.9303 128.45H45.7773V208.432H49.9303V128.45Z" fill="#34759E"/>
<path id="Vector_11" d="M214.802 128.45V135.646V208.293H218.955V135.507V128.45H214.802Z" fill="#34759E"/>
<path id="Vector_12" opacity="0.6" d="M214.802 128.45V135.646L218.955 135.507V128.45H214.802Z" fill="#02385D"/>
<path id="Vector_13" opacity="0.6" d="M45.7773 128.45V140.074L49.9303 139.935V128.45H45.7773Z" fill="#02385D"/>
<g id="Group_9">
<path id="Vector_14" d="M219.924 132.186H45.7776C44.6702 132.186 43.7012 131.218 43.7012 130.111C43.7012 129.004 44.6702 128.035 45.7776 128.035H219.924C221.031 128.035 222 129.004 222 130.111C222 131.218 221.17 132.186 219.924 132.186Z" fill="#34759E"/>
<g id="Group_10">
<path id="Vector_15" d="M45.7774 129.557H219.924C220.616 129.557 221.17 129.28 221.585 128.727C221.17 128.312 220.616 127.897 219.924 127.897H45.7774C45.0852 127.897 44.5315 128.173 44.1162 128.727C44.5315 129.142 45.0852 129.557 45.7774 129.557Z" fill="#5C90B1"/>
</g>
</g>
</g>
<g id="Group_11">
<g id="Group_12">
<g id="Group_13">
<path id="Vector_16" d="M158.045 126.651L154.584 124.299C153.754 123.745 153.062 122.915 152.785 121.808L151.124 116.273C150.57 114.336 148.77 113.09 146.832 113.09H144.894H142.956C141.018 113.09 139.218 114.336 138.665 116.273L137.004 121.808C136.727 122.777 136.035 123.607 135.204 124.299L131.743 126.651V127.758H158.322V126.651H158.045Z" fill="#005486"/>
</g>
<path id="Vector_17" d="M158.045 126.651H131.466V127.897H158.045V126.651Z" fill="#33769E"/>
<g id="Group_14">
<path id="Vector_18" d="M144.755 113.229H146.693C147.385 113.229 148.216 113.367 148.769 113.782C148.077 113.506 147.385 113.229 146.693 113.229H144.755H142.817C142.125 113.229 141.294 113.367 140.74 113.782C141.432 113.506 142.125 113.229 142.817 113.229H144.755Z" fill="#F4FBFE"/>
<path id="Vector_19" d="M149.461 120.286C151.4 121.808 151.538 121.946 154.03 123.745C153.476 123.192 153.061 122.5 152.922 121.808L151.261 116.273C151.123 115.996 151.123 115.858 150.984 115.581C150.569 114.751 149.877 114.059 149.046 113.506C148.354 113.229 147.662 112.952 146.97 112.952H145.032H143.094C142.401 112.952 141.571 113.09 141.017 113.506C139.91 114.059 139.079 115.028 138.802 116.135L137.972 118.21C141.709 118.21 146.831 118.349 149.461 120.286Z" fill="#012A44"/>
</g>
</g>
<g id="Group_15">
<path id="Vector_20" d="M182.132 117.103H105.718C104.195 117.103 103.088 115.858 103.088 114.474V64.5203C103.088 62.9982 104.334 61.8911 105.718 61.8911H182.132C183.655 61.8911 184.762 63.1365 184.762 64.5203V114.474C184.901 115.858 183.655 117.103 182.132 117.103Z" fill="#005486"/>
<path id="Vector_21" d="M181.44 67.8413H106.41V108.247H181.44V67.8413Z" fill="#D5ECF3"/>
<g id="Group_16">
<path id="Vector_22" d="M153.403 67.8928L106.89 68.0677L107.04 108.058L153.553 107.884L153.403 67.8928Z" fill="white"/>
<g id="Group_17">
<path id="Vector_23" d="M135.894 92.8474L113.191 92.9285L113.196 94.3123L135.899 94.2311L135.894 92.8474Z" fill="#005486"/>
<path id="Vector_24" d="M136.033 96.1705L113.33 96.2471L113.335 97.6308L136.037 97.5542L136.033 96.1705Z" fill="#005486"/>
<path id="Vector_25" d="M132.018 98.9449L113.191 99.0085L113.196 100.392L132.023 100.329L132.018 98.9449Z" fill="#005486"/>
</g>
<g id="Group_18">
<path id="Vector_26" d="M134.65 87.9059H112.916V77.2509H113.331V87.6291L134.65 87.4908V87.9059Z" fill="#005486"/>
<path id="Vector_27" d="M114.439 86.7989L114.162 86.5221L119.007 82.9243L122.468 83.893L125.929 81.1254L130.359 82.7859L134.511 79.3265L134.65 79.6033L130.497 83.2011L126.067 81.5406L122.468 84.3081L119.146 83.3395L114.439 86.7989Z" fill="#005486"/>
<path id="Vector_28" d="M114.439 86.7989L114.162 86.5221L118.453 82.2325L122.053 82.786L125.098 79.6033L129.666 80.5719L133.266 76.559L133.542 76.8358L129.805 80.9871L125.237 80.0184L122.191 83.2011L118.592 82.6476L114.439 86.7989Z" fill="#F05C4F"/>
</g>
</g>
<g id="Group_19">
<path id="Vector_29" d="M181.024 67.9797H153.477V108.386H181.024V67.9797Z" fill="white"/>
<g id="Group_20">
<path id="Vector_30" d="M157.106 91.1874L157.094 92.2943L176.472 92.5161L176.485 91.4092L157.106 91.1874Z" fill="#005486"/>
<path id="Vector_31" d="M157.092 94.0103L157.079 95.1172L176.458 95.3371L176.47 94.2302L157.092 94.0103Z" fill="#005486"/>
<path id="Vector_32" d="M157.017 96.3492L157.004 97.4561L173.06 97.6394L173.073 96.5325L157.017 96.3492Z" fill="#005486"/>
</g>
<g id="Group_21">
<path id="Vector_33" d="M157.252 82.1256L157.239 83.2325L176.618 83.4521L176.63 82.3452L157.252 82.1256Z" fill="#005486"/>
<path id="Vector_34" d="M157.236 84.949L157.224 86.0559L176.602 86.2728L176.614 85.1659L157.236 84.949Z" fill="#005486"/>
<path id="Vector_35" d="M157.162 87.2858L157.149 88.3927L173.206 88.5765L173.218 87.4696L157.162 87.2858Z" fill="#005486"/>
</g>
</g>
</g>
<path id="Vector_36" d="M184.901 114.474V64.5203C184.901 62.9982 183.655 61.8911 182.271 61.8911H106.134C106.134 61.8911 180.471 63.8284 181.44 63.8284C183.378 63.8284 184.071 64.3819 184.071 67.9797C184.071 71.7159 183.24 113.782 183.24 113.782C183.24 113.782 182.825 116.135 181.025 116.273C180.194 116.411 113.886 116.688 113.886 116.688L114.024 117.103H182.132C183.655 117.103 184.901 115.858 184.901 114.474Z" fill="#33769E"/>
<g id="Group_22" opacity="0.2">
<g id="Group_23">
<path id="Vector_37" d="M106.41 67.8413V74.0683C121.084 75.0369 157.907 78.9114 181.44 92.7491V67.8413H106.41Z" fill="#004975"/>
</g>
</g>
</g>
<g id="Group_24">
<path id="Vector_38" d="M101.15 220.194L90.0752 217.011L91.3211 213.69L102.257 216.873L101.15 220.194Z" fill="#FDE8E6"/>
<path id="Vector_39" d="M89.1065 220.609L77.4783 221.024L77.3398 217.426L88.9681 217.011L89.1065 220.609Z" fill="#FDE8E6"/>
<g id="Group_25">
<g id="Group_26">
<path id="Vector_40" d="M74.1552 151.006L91.7359 150.59C93.1202 150.59 94.3661 151.282 95.0583 152.389L96.8579 155.572C97.1347 156.125 97.2732 156.817 97.2732 157.371L89.521 218.118L78.4465 218.533L82.461 164.566L65.434 164.982L47.1611 165.535C43.285 165.397 39.9627 164.705 39.1321 160.138L38.7168 150.314L56.8513 152.389L74.1552 151.006Z" fill="#56A5B2"/>
</g>
<g id="Group_27">
<path id="Vector_41" d="M91.0439 121.808L96.0275 122.223L101.565 119.594L106.41 120.424L107.933 125.268H106.133L104.333 123.745L101.011 126.236L91.4592 126.513L91.0439 121.808Z" fill="#F9C0B2"/>
<path id="Vector_42" d="M70.5561 127.758L71.2483 127.62C73.6016 127.066 74.7091 124.852 74.1554 122.638L60.4507 92.4723C59.2048 88.8745 56.0209 86.6605 52.2832 87.4908L51.4526 87.7675C47.715 88.5978 46.4691 91.5037 47.5766 94.8247L65.0189 124.991C66.5416 127.066 69.1718 127.897 70.5561 127.758Z" fill="#027394"/>
<path id="Vector_43" d="M94.505 126.651V121.67L68.6183 119.732C66.265 120.424 64.8807 122.777 65.7113 124.852C66.5419 127.066 68.4799 127.897 71.387 127.758L94.505 126.651Z" fill="#005C88"/>
</g>
<g id="Group_28">
<g id="Group_29">
<path id="Vector_44" d="M75.5397 152.528L115.685 155.987C117.346 156.125 118.73 156.956 119.561 158.339L120.668 160.415C121.222 161.522 121.36 162.629 120.945 163.875L101.149 218.948L91.044 214.244L105.441 166.642L88.137 165.258L47.0229 164.843C43.1468 164.705 39.5476 162.768 38.8555 158.201L38.3018 146.716L73.7401 143.395L75.5397 152.528Z" fill="#5FB5CA"/>
</g>
</g>
<g id="Group_30">
<path id="Vector_45" d="M37.1943 152.943L77.2009 152.113L74.8476 144.225C74.8476 144.225 75.8166 133.847 76.3703 127.343C76.7856 122.638 79.8311 108.247 80.2464 102.435C80.9386 93.0258 84.2609 87.0757 78.3084 85.6919C73.6017 84.5849 49.3763 84.8616 47.4382 86.3838C42.1779 90.3967 42.3163 100.498 41.6241 104.234C40.6551 108.801 40.2398 112.675 39.6861 118.072C39.1324 124.022 37.8865 138.828 37.8865 138.828L37.1943 152.943Z" fill="#0063A4"/>
</g>
<g id="Group_31">
<g id="Group_32">
<g id="Group_33">
<path id="Vector_46" d="M137.556 128.173H144.616C145.309 128.173 145.862 127.758 145.862 127.205V126.79C145.862 125.959 145.724 125.406 143.094 124.714C143.094 124.714 140.879 124.022 139.91 123.884C137.972 123.469 136.311 124.576 136.311 126.098V127.205C136.311 127.758 136.864 128.173 137.556 128.173Z" fill="#00487A"/>
<path id="Vector_47" d="M124.129 121.947L133.819 123.33L136.45 122.777L141.156 122.085L144.617 123.469L145.724 124.714L146.278 126.236L145.863 126.375L145.032 125.544L144.617 125.268L145.032 125.683L145.724 126.79L145.171 126.928L143.925 126.098L142.264 125.683L140.879 126.79L138.803 127.758H135.204L122.053 126.513L124.129 121.947Z" fill="#FDE8E6"/>
<g id="Group_34">
<g id="Group_35">
<path id="Vector_48" d="M99.6265 123.884L100.18 123.469C102.118 121.946 102.534 119.317 101.011 117.38C101.011 117.38 87.4446 95.5166 82.1842 89.2897C79.554 86.2454 75.4011 85.1384 72.0788 88.1827L71.3866 88.8745C69.4486 91.2269 70.4176 95.2399 73.1862 99.3911L92.8434 123.469C94.643 125.129 97.5501 125.406 99.6265 123.884Z" fill="#0063A4"/>
<path id="Vector_49" d="M126.482 127.343L128.697 122.085L97.5502 115.858C94.92 115.72 92.982 118.072 92.982 118.072L92.5667 119.317C92.5667 119.317 91.7361 124.299 96.1659 124.852C103.226 125.959 126.482 127.343 126.482 127.343Z" fill="#0063A4"/>
</g>
</g>
</g>
</g>
<path id="Vector_50" opacity="0.5" d="M77.0625 104.234L79.5543 107.279L79.2774 109.216L77.0625 104.234Z" fill="#005486"/>
</g>
</g>
<g id="Group_36">
<g id="Group_37">
<g id="Group_38">
<g id="Group_39">
<g id="Group_40">
<g id="Group_41">
<path id="Vector_51" d="M51.5909 166.089H46.6074V220.747H51.5909V166.089Z" fill="#33769E"/>
<path id="Vector_52" d="M23.9053 225.314V225.037C23.9053 222.823 25.9817 220.886 28.4735 220.886H69.4491C72.2177 220.886 74.4326 222.823 74.4326 225.314H23.9053Z" fill="#003F65"/>
<path id="Vector_53" d="M64.3271 229.327C64.3271 226.144 67.0958 223.653 70.5565 223.653C74.0173 223.653 76.7859 226.144 76.7859 229.327C76.7859 232.509 74.0173 235 70.5565 235C67.0958 235 64.3271 232.371 64.3271 229.327Z" fill="#33769E"/>
<path id="Vector_54" d="M42.5928 229.327C42.5928 226.144 45.3614 223.653 48.8222 223.653C52.283 223.653 55.0516 226.144 55.0516 229.327C55.0516 232.509 52.283 235 48.8222 235C45.3614 235 42.5928 232.371 42.5928 229.327Z" fill="#33769E"/>
<path id="Vector_55" d="M20.8594 229.327C20.8594 226.144 23.628 223.653 27.0888 223.653C30.5496 223.653 33.3182 226.144 33.3182 229.327C33.3182 232.509 30.5496 235 27.0888 235C23.628 235 20.8594 232.371 20.8594 229.327Z" fill="#33769E"/>
<path id="Vector_56" d="M23.9053 229.327C23.9053 227.666 25.428 226.421 27.2276 226.421C29.0272 226.421 30.55 227.804 30.55 229.327C30.55 230.987 29.0272 232.232 27.2276 232.232C25.2896 232.232 23.9053 230.849 23.9053 229.327Z" fill="#002032"/>
<path id="Vector_57" d="M45.6387 229.327C45.6387 227.666 47.1614 226.421 48.961 226.421C50.7606 226.421 52.2834 227.804 52.2834 229.327C52.2834 230.987 50.7606 232.232 48.961 232.232C47.023 232.232 45.6387 230.849 45.6387 229.327Z" fill="#002032"/>
<path id="Vector_58" d="M67.3721 229.327C67.3721 227.666 68.8948 226.421 70.6944 226.421C72.494 226.421 74.0168 227.804 74.0168 229.327C74.0168 230.987 72.494 232.232 70.6944 232.232C68.7564 232.232 67.3721 230.849 67.3721 229.327Z" fill="#002032"/>
</g>
</g>
<path id="Vector_59" d="M44.7114 220.768H53.9863V201.119H44.7114V220.768Z" fill="#003F65"/>
</g>
</g>
<path id="Vector_60" d="M41.3471 172.039L56.0208 171.9C57.8204 171.9 59.4816 171.208 60.8659 170.24L65.0188 166.642L33.1797 166.78L36.0867 169.825C37.3326 171.208 39.4091 172.039 41.3471 172.039Z" fill="#002032"/>
</g>
<g id="Group_42">
<g id="Group_43">
<path id="Vector_61" opacity="0.8" d="M27.5043 94.6863L45.9156 94.1328C55.8827 93.3026 58.0976 99.8063 61.143 110.461L63.2195 125.406C63.6348 134.677 55.4674 142.288 45.7772 142.703L30.5498 143.256C20.8596 143.533 12.2769 136.338 12 127.205L13.938 111.983C15.8761 101.605 17.6757 94.9631 27.5043 94.6863Z" fill="#F05C4F"/>
<path id="Vector_62" d="M47.0231 97.5922C52.145 97.4539 53.9446 99.6679 57.1285 111.153L59.3434 125.821C59.4819 132.878 53.2525 138.967 45.6388 139.244L30.4113 139.797C22.9361 140.074 16.4298 134.4 16.0145 127.482L17.9525 112.537C20.1674 101.19 21.8286 98.6993 27.6427 98.4225L46.0541 97.869H46.1925H46.3309C46.4693 97.5922 46.7462 97.5922 47.0231 97.5922ZM46.8846 93.9945C46.6078 93.9945 46.1925 93.9945 45.7772 93.9945L27.3659 94.548C17.6757 94.8247 15.8761 101.467 13.938 111.707L12 127.066C12.4153 136.338 20.8596 143.533 30.5498 143.118L45.7772 142.565C55.4674 142.288 63.6348 134.539 63.2195 125.268L61.0046 110.323C58.0976 100.083 55.8827 93.7177 46.8846 93.9945Z" fill="#002032"/>
</g>
<path id="Vector_63" d="M21.5514 168.303H83.1533C88.6905 168.303 89.2442 168.441 89.2442 165.258C89.2442 162.076 90.2132 160.415 84.676 160.415L22.382 159.446C16.8448 159.446 15.7373 162.076 15.7373 165.258C15.7373 168.441 16.0142 168.303 21.5514 168.303Z" fill="#002032"/>
<g id="Group_44">
<path id="Vector_64" d="M41.7622 164.428H32.9026L31.3799 128.173H40.3779L41.7622 164.428Z" fill="#003F65"/>
<path id="Vector_65" d="M77.3396 169.41H19.3369C19.0601 169.41 18.7832 169.133 18.7832 168.856V165.397C18.7832 164.566 19.4754 163.736 20.4444 163.736H76.0937C76.9243 163.736 77.7549 164.428 77.7549 165.397V168.856C77.7549 169.133 77.6164 169.41 77.3396 169.41Z" fill="#003F65"/>
<path id="Vector_66" d="M58.7896 122.638C39.4093 128.865 21.4132 125.268 16.2913 124.022L15.876 127.205C15.876 127.62 16.0144 128.035 16.0144 128.45C19.8905 129.419 27.6426 130.941 37.4712 130.664C44.1159 130.387 51.1759 129.557 59.0665 126.928C59.0665 126.513 59.0665 126.098 59.0665 125.683L58.7896 122.638Z" fill="#003F65"/>
</g>
</g>
</g>
<path id="Vector_67" d="M79.2771 218.672H77.4775V227.528H104.61V224.622L91.8744 218.672C91.8744 218.672 80.3846 221.439 79.2771 218.672Z" fill="#3D4B47"/>
<path id="Vector_68" d="M91.4596 215.627L89.66 215.074L86.7529 223.515L112.64 230.849L113.609 228.081L103.503 218.948C103.365 219.087 91.598 218.672 91.4596 215.627Z" fill="#4D5955"/>
<path id="Vector_69" d="M79.4157 85.6919L83.8455 61.1993L92.0129 58.5701L83.2917 46.9465L83.8455 34.631C83.8455 34.631 66.5416 35.3229 64.0498 31.7251C60.8659 32.9705 48.4071 40.0277 44.8079 38.5055C41.2087 36.9834 40.7934 46.6697 40.7934 46.6697C40.7934 46.6697 28.8883 44.0406 29.3036 48.607C29.8573 53.1734 33.8718 55.941 37.3326 54.1421L47.9918 85.6919H79.4157Z" fill="#FDE8E6"/>
<g id="Group_45">
<path id="Vector_70" d="M68.7567 50.821C70.9738 50.821 72.7712 49.7059 72.7712 48.3303C72.7712 46.9546 70.9738 45.8395 68.7567 45.8395C66.5395 45.8395 64.7422 46.9546 64.7422 48.3303C64.7422 49.7059 66.5395 50.821 68.7567 50.821Z" fill="#49544C"/>
<path id="Vector_71" d="M70.2796 49.8524C71.1206 49.8524 71.8023 49.4807 71.8023 49.0221C71.8023 48.5636 71.1206 48.1919 70.2796 48.1919C69.4386 48.1919 68.7568 48.5636 68.7568 49.0221C68.7568 49.4807 69.4386 49.8524 70.2796 49.8524Z" fill="white"/>
</g>
<path id="Vector_72" d="M63.0811 34.7694C63.0811 34.7694 76.7857 42.7952 88.1371 33.8007C99.4884 24.8063 90.9057 14.5664 90.9057 14.5664C90.9057 14.5664 91.0441 18.1642 89.6598 18.7177C88.2755 19.2712 86.8912 16.0886 86.8912 16.0886C86.8912 16.0886 86.3375 11.5221 81.4924 10C80.6618 9.72325 85.23 14.8432 77.4779 19.4096C75.1246 19.4096 75.6783 20.1015 68.203 17.7491C60.7277 15.3967 54.7752 16.2269 53.114 17.7491C51.4528 19.2712 48.1305 24.1144 43.4238 18.1642C43.0085 15.3967 40.7936 11.9373 43.4238 11.107C46.054 10.2768 40.2399 10 36.9176 17.7491C33.5952 25.4982 35.3948 15.5351 35.3948 15.5351C35.3948 15.5351 30.5497 18.5793 31.5188 26.0517C32.4878 33.524 34.9795 33.6624 34.9795 33.6624L36.5023 46.1162C36.5023 46.1162 41.0705 46.1162 41.9011 46.9465C42.7317 47.6384 45.6387 39.4742 45.6387 39.4742C45.6387 39.4742 52.6987 40.5812 63.0811 34.7694Z" fill="#576061"/>
<path id="Vector_73" d="M78.1703 73.1838C78.1703 73.1838 73.0871 75.0233 70.7708 73.0616C68.4545 71.1 71.4007 70.0639 73.6061 71.0633C75.7798 71.7878 78.1703 73.1838 78.1703 73.1838Z" fill="#576061"/>
</g>
</g>
</g>
<defs>
<filter id="filter0_d_410_1440" x="0" y="0.989258" width="234" height="249.011" filterUnits="userSpaceOnUse" color-interpolation-filters="sRGB">
<feFlood flood-opacity="0" result="BackgroundImageFix"/>
<feColorMatrix in="SourceAlpha" type="matrix" values="0 0 0 0 0 0 0 0 0 0 0 0 0 0 0 0 0 0 127 0" result="hardAlpha"/>
<feOffset dy="3"/>
<feGaussianBlur stdDeviation="6"/>
<feComposite in2="hardAlpha" operator="out"/>
<feColorMatrix type="matrix" values="0 0 0 0 0 0 0 0 0 0 0 0 0 0 0 0 0 0 0.15 0"/>
<feBlend mode="normal" in2="BackgroundImageFix" result="effect1_dropShadow_410_1440"/>
<feBlend mode="normal" in="SourceGraphic" in2="effect1_dropShadow_410_1440" result="shape"/>
</filter>
</defs>
</svg>
