<svg width="153" height="204" viewBox="0 0 153 204" fill="none" xmlns="http://www.w3.org/2000/svg">
<g id="Element 1frau 1" clip-path="url(#clip0_125_5920)">
<g id="Ebene 2" filter="url(#filter0_d_125_5920)">
<g id="Layer 1">
<path id="Vector" d="M74.9767 197.509V171.479L83.2676 167.096V198.702C83.2676 198.702 78.8703 202.082 74.9767 197.509Z" fill="#FDE8E6"/>
<path id="Vector_2" d="M92.9125 197.509V171.479L101.203 167.096V198.702C101.203 198.702 96.8271 202.082 92.9125 197.509Z" fill="#FDE8E6"/>
<path id="Vector_3" d="M74.6723 101.828C74.6723 101.828 69.3829 114.263 67.5358 132.72C65.6887 151.177 63.385 161.1 59.6961 165.483C56.0071 169.866 52.5543 182.095 61.0814 177.045C65.2269 172.893 67.5358 170.355 67.5358 170.355C67.5358 170.355 69.8341 166.203 70.065 169.661C70.2959 173.119 69.3724 178.779 74.6723 178.259C79.9722 177.738 85.0045 174.054 85.0045 174.054C85.0045 174.054 90.105 168.515 97.9394 176.362C102.316 177.281 112.916 177.744 116.368 175.899C116.368 175.899 106.624 168.053 107.579 155.135C108.534 142.217 109.458 137.597 108.765 126.293C108.072 114.988 103.701 101.86 103.701 101.86L74.6723 101.828Z" fill="#70CDE3"/>
<path id="Vector_4" d="M83.9866 195.849H85.5241V204H62.9601V201.372L73.5547 195.833C73.2713 195.686 82.5068 198.077 83.9866 195.849Z" fill="#3D4B47"/>
<path id="Vector_5" d="M103.491 195.844H105.029V203.995H82.4648V201.367L93.0384 195.844C93.0384 195.844 102.573 198.455 103.491 195.844Z" fill="#3D4B47"/>
<path id="Vector_6" d="M74.3575 102.591L68.4804 75.4776L60.0845 72.6238L69.0838 59.6691L67.158 45.574C66.6333 44.3179 63.2067 43.0356 64.2352 42.1526C68.3754 38.6105 81.494 27.306 90.3098 38.0219C90.7925 38.6052 92.9912 39.0414 93.6524 39.404C97.7874 41.6849 107.852 43.6084 110.444 45.122C113.876 47.1453 116.054 59.4221 116.059 67.6784L103.916 102.596L74.3575 102.591Z" fill="#FDE8E6"/>
<path id="Vector_7" d="M83.9865 64.0049C86.276 64.0049 88.132 62.7343 88.132 61.1669C88.132 59.5996 86.276 58.329 83.9865 58.329C81.6971 58.329 79.8411 59.5996 79.8411 61.1669C79.8411 62.7343 81.6971 64.0049 83.9865 64.0049Z" fill="#49544C"/>
<path id="Vector_8" d="M83.9865 62.1602C84.8356 62.1602 85.524 61.7155 85.524 61.1669C85.524 60.6184 84.8356 60.1737 83.9865 60.1737C83.1373 60.1737 82.449 60.6184 82.449 61.1669C82.449 61.7155 83.1373 62.1602 83.9865 62.1602Z" fill="white"/>
<path id="Vector_9" d="M88.2738 85.7678C88.2738 85.7678 84.6005 90.0352 81.4888 89.2784C78.3771 88.5216 80.4393 86.1251 82.9319 85.9097C85.4244 85.6942 88.2738 85.7678 88.2738 85.7678Z" fill="#576061"/>
<path id="Vector_10" d="M71.3455 17C71.3455 17 60.5042 20.0797 58.3685 26.3442C57.6444 28.499 53.6039 51.376 80.3238 49.0689C93.2483 47.2452 109.143 34.7845 114.884 59.6849C114.884 68.2934 111.21 80.7068 111.21 80.7068L110.061 86.4878C110.061 86.4878 107.527 94.7178 118.121 95.7899C125.032 95.7899 130.332 95.5535 130.332 95.5535C130.332 95.5535 133.559 96.1789 134.005 89.9459L131.245 89.7146C131.245 89.7146 125.945 89.7146 122.487 81.6422C119.029 73.5698 118.342 70.9368 118.814 68.3301C119.286 65.7234 121.348 53.7199 123.652 46.7827C125.956 39.8455 126.344 22.7915 108.434 25.7871C90.5249 28.7828 83.3569 27.863 82.1972 27.863C81.0375 27.863 67.6618 26.2286 71.3455 17Z" fill="#576061"/>
<path id="Vector_11" d="M109.61 63.6107C109.164 63.7211 106.335 68.7453 106.335 68.7453L110.749 71.8303C111.099 72.0222 111.485 72.1416 111.882 72.1813C112.28 72.221 112.681 72.1803 113.063 72.0615L116.474 71.2364C117.415 71.0368 118.255 70.5099 118.845 69.7491C119.895 68.2198 121.569 65.4974 121.222 64.2046C120.719 62.3547 121.653 60.6204 109.61 63.6107Z" fill="#FDE8E6"/>
<path id="Vector_12" d="M79.7833 53.7883C80.371 53.7147 80.964 53.6306 81.5622 53.6043C82.1625 53.5815 82.7635 53.5956 83.3621 53.6464C84.5734 53.7307 85.7628 54.0129 86.8831 54.482C88.0027 54.9552 89.0323 55.6184 89.9266 56.4423C90.3622 56.8574 90.7872 57.2831 91.1808 57.7299C91.5743 58.1766 91.9417 58.6443 92.3562 59.0753C91.3959 58.3553 90.5931 57.4671 89.6643 56.7471C88.7535 56.0216 87.7491 55.4223 86.6785 54.9655C85.6017 54.5144 84.4711 54.2052 83.3149 54.0458C82.1448 53.8805 80.9649 53.7944 79.7833 53.7883Z" fill="#464F4C"/>
<path id="Vector_13" d="M81.09 64.8247C82.0293 64.2992 86.9095 61.3404 81.1583 57.8245C81.0258 57.7417 80.8735 57.6963 80.7175 57.6931C75.8688 57.5407 43.8489 52.9999 29.9747 51.0081C25.1785 50.3039 21.0908 52.5427 19.1492 56.9941C17.8006 60.0948 17.3598 64.1153 19.3748 67.6627C21.4738 71.3415 24.8689 73.2598 29.0511 72.7447C42.5476 71.0735 78.2144 65.3345 80.7962 64.9141C80.8989 64.9033 80.9986 64.8729 81.09 64.8247Z" fill="#A26E1C"/>
<path id="Vector_14" d="M30.2894 61.7818H81.2421C81.2421 61.7818 82.1866 63.884 81.2421 64.3202C80.2975 64.7564 29.3396 67.978 29.3396 67.978L30.2894 61.7818Z" fill="#C89446"/>
<path id="Vector_15" d="M44.4103 70.6058C44.4103 70.6058 52.3759 62.197 42.9305 52.858C44.3159 53.2627 52.7328 61.3351 45.2447 70.6058H44.4103Z" fill="#E6AF6A"/>
<path id="Vector_16" d="M61.7373 67.978C61.7373 67.978 65.9353 61.9868 60.9607 55.3281C61.6848 55.6277 66.1032 61.3824 62.1729 67.978H61.7373Z" fill="#E6AF6A"/>
<path id="Vector_17" d="M25.7661 64.8668C25.7661 63.3503 26.3676 61.8959 27.4383 60.8236C28.509 59.7513 29.9612 59.1488 31.4754 59.1488C31.7635 59.1501 32.0512 59.1729 32.3359 59.2172C31.6118 55.7643 29.4918 53.2627 26.994 53.2627C23.8928 53.2627 21.3793 57.1097 21.3793 61.8554C21.3793 66.6011 23.8928 70.4428 26.994 70.4428C27.6481 70.4366 28.2903 70.2668 28.8621 69.9488C27.9303 69.4677 27.1485 68.7391 26.6024 67.8427C26.0564 66.9464 25.767 65.9168 25.7661 64.8668Z" fill="#7CDDDE"/>
<path id="Vector_18" d="M32.6088 61.8554C32.6102 60.9723 32.5187 60.0916 32.3359 59.2277C32.0512 59.1834 31.7635 59.1606 31.4753 59.1594C30.1947 59.1578 28.9507 59.5874 27.9433 60.3793C26.9359 61.1712 26.2236 62.2793 25.9209 63.5255C25.6181 64.7717 25.7425 66.0837 26.274 67.2506C26.8056 68.4175 27.7134 69.3715 28.8516 69.9593C31.045 68.7663 32.6088 65.5973 32.6088 61.8554Z" fill="white"/>
<path id="Vector_19" d="M92.7393 118.157L90.3097 116.581C90.1672 116.49 90.0012 116.442 89.8322 116.444C87.7332 116.481 72.7937 116.265 66.1242 102.901C61.7111 94.0556 55.6294 72.7552 55.6294 72.6554C55.5034 70.2116 55.6818 68.204 56.5529 66.7955C57.3037 65.7249 57.8223 64.5087 58.0753 63.2252C58.3284 61.9417 58.3103 60.6194 58.0222 59.3433C57.4974 57.2411 57.2718 55.6329 57.2298 55.3386C57.2298 55.3018 57.2298 55.2756 57.2298 55.244C57.2298 54.8972 57.1039 52.7214 55.409 53.063C55.2246 53.0992 55.0336 53.0801 54.86 53.0081C54.6864 52.9361 54.5378 52.8145 54.4329 52.6583C54.344 52.4828 54.2179 52.3287 54.0634 52.2069C53.909 52.0851 53.7299 51.9984 53.5387 51.9529C53.3474 51.9074 53.1486 51.9041 52.9559 51.9434C52.7633 51.9826 52.5815 52.0634 52.4232 52.1801C52.2592 52.2827 52.0645 52.3247 51.8729 52.2988C51.6812 52.2729 51.5046 52.1807 51.3737 52.0382C50.6128 51.2289 49.4164 50.1672 47.5535 51.5442C47.4557 51.6175 47.3428 51.6683 47.2231 51.6928C47.1033 51.7173 46.9796 51.715 46.8609 51.6861C46.1892 51.5021 45.0872 51.2762 44.4418 52.5375C44.3601 52.7228 44.3474 52.9313 44.4062 53.1251C44.4649 53.319 44.5911 53.4853 44.7619 53.5938C45.9531 54.3664 48.4351 56.3687 46.8189 58.781C44.7199 61.8817 46.9343 62.4282 47.8684 73.4963L58.2478 103.778C58.2509 103.79 58.2509 103.803 58.2478 103.815C58.4367 104.456 64.5867 124.648 90.0788 125.026C93.857 125.079 94.5497 123.139 94.6651 122.666C94.6728 122.604 94.6728 122.54 94.6651 122.477V120.722C94.6588 120.529 94.5886 120.344 94.4657 120.196L92.8915 118.336C92.8494 118.269 92.7982 118.209 92.7393 118.157Z" fill="#FDE8E6"/>
<path id="Vector_20" d="M82.3179 114.605L93.0961 111.819C93.0961 111.819 99.2724 112.203 100.18 116.581C101.088 120.958 100.086 122.651 95.7881 124.464C92.5025 125.761 89.1263 126.815 85.6867 127.617C85.6867 127.617 91.9574 120.985 82.3179 114.605Z" fill="#49BDD1"/>
</g>
</g>
</g>
<defs>
<filter id="filter0_d_125_5920" x="-0.000610352" y="2" width="152.006" height="223" filterUnits="userSpaceOnUse" color-interpolation-filters="sRGB">
<feFlood flood-opacity="0" result="BackgroundImageFix"/>
<feColorMatrix in="SourceAlpha" type="matrix" values="0 0 0 0 0 0 0 0 0 0 0 0 0 0 0 0 0 0 127 0" result="hardAlpha"/>
<feOffset dy="3"/>
<feGaussianBlur stdDeviation="9"/>
<feComposite in2="hardAlpha" operator="out"/>
<feColorMatrix type="matrix" values="0 0 0 0 0 0 0 0 0 0 0 0 0 0 0 0 0 0 0.12 0"/>
<feBlend mode="normal" in2="BackgroundImageFix" result="effect1_dropShadow_125_5920"/>
<feBlend mode="normal" in="SourceGraphic" in2="effect1_dropShadow_125_5920" result="shape"/>
</filter>
<clipPath id="clip0_125_5920">
<rect width="153" height="204" fill="white"/>
</clipPath>
</defs>
</svg>
