<svg width="22" height="20" viewBox="0 0 22 20" fill="none" xmlns="http://www.w3.org/2000/svg">
<path id="Vector" d="M21.7008 17.2913L17.4165 13.3971C17.2231 13.2214 16.961 13.1237 16.686 13.1237H15.9855C17.1716 11.7449 17.8763 10.0107 17.8763 8.12421C17.8763 3.63636 13.8756 0 8.93815 0C4.00068 0 0 3.63636 0 8.12421C0 12.612 4.00068 16.2484 8.93815 16.2484C11.0137 16.2484 12.9216 15.6079 14.4386 14.5298V15.1665C14.4386 15.4165 14.546 15.6547 14.7394 15.8305L19.0237 19.7246C19.4276 20.0918 20.0808 20.0918 20.4804 19.7246L21.6965 18.6193C22.1004 18.2521 22.1004 17.6584 21.7008 17.2913ZM8.93815 13.1237C5.90004 13.1237 3.43775 10.8896 3.43775 8.12421C3.43775 5.36276 5.89574 3.12469 8.93815 3.12469C11.9763 3.12469 14.4386 5.35885 14.4386 8.12421C14.4386 10.8857 11.9806 13.1237 8.93815 13.1237Z" fill="white"/>
</svg>
