<svg width="130" height="34" viewBox="0 0 130 34" fill="none" xmlns="http://www.w3.org/2000/svg">
<g id="Vector">
<path d="M57.3779 27.1259H54.4697C54.1432 27.1259 53.8758 27.0443 53.6656 26.8808C53.4558 26.7178 53.3052 26.5147 53.2117 26.2717L51.702 22.1404H43.3291L41.8194 26.2717C41.7451 26.4864 41.598 26.6828 41.3787 26.86C41.1588 27.0378 40.892 27.1264 40.5746 27.1264H37.6532L45.5939 6.87514H49.4377L57.3779 27.1259ZM44.293 19.4791H50.7382L48.2772 12.7427C48.1655 12.4439 48.0422 12.092 47.9073 11.6854C47.7713 11.2793 47.6389 10.8378 47.509 10.3613C47.3781 10.8378 47.2502 11.2813 47.1239 11.692C46.998 12.1031 46.8747 12.4621 46.7544 12.77L44.293 19.4791Z" fill="#333333"/>
<path d="M63.4031 19.2132V27.1259H59.6422V6.87514H65.8074C67.1862 6.87514 68.3674 7.01742 69.3515 7.3025C70.334 7.58706 71.1407 7.98657 71.7699 8.5C72.3982 9.01343 72.8601 9.62712 73.1528 10.3416C73.4464 11.056 73.593 11.8429 73.593 12.7016C73.593 13.3832 73.4939 14.0278 73.2928 14.6344C73.0926 15.2415 72.803 15.7924 72.426 16.2871C72.0484 16.7818 71.5829 17.2157 71.0275 17.5894C70.4725 17.9631 69.8422 18.2618 69.1336 18.4861C69.6087 18.757 70.0186 19.1439 70.3638 19.6482L75.4252 27.1274H72.0423C71.7158 27.1274 71.4389 27.0621 71.2104 26.9309C70.9815 26.8003 70.7889 26.6135 70.6307 26.3709L66.3811 19.8867C66.2224 19.6441 66.0475 19.4715 65.8569 19.3687C65.6654 19.2659 65.3834 19.2148 65.0114 19.2148H63.4031V19.2132ZM63.4031 16.5104H65.7513C66.4594 16.5104 67.077 16.4218 67.6032 16.2445C68.1293 16.0668 68.563 15.8222 68.9031 15.5088C69.2433 15.1959 69.4975 14.8247 69.6658 14.3954C69.8331 13.966 69.917 13.4946 69.917 12.9811C69.917 11.9538 69.5789 11.1654 68.9031 10.614C68.2279 10.0636 67.1953 9.78814 65.8074 9.78814H63.4031V16.5104Z" fill="#333333"/>
<path d="M91.292 22.35C91.4962 22.35 91.6736 22.43 91.8227 22.5885L93.3051 24.1992C92.4848 25.217 91.4759 25.9967 90.2791 26.538C89.0807 27.0793 87.6433 27.3502 85.9663 27.3502C84.4652 27.3502 83.1162 27.0935 81.9194 26.58C80.7215 26.0666 79.6985 25.3521 78.8509 24.4372C78.0023 23.5222 77.3529 22.4305 76.901 21.1601C76.4486 19.8902 76.2222 18.5038 76.2222 17.0005C76.2222 15.4789 76.4739 14.0855 76.9773 12.8201C77.4802 11.5548 78.1883 10.4651 79.1016 9.54965C80.0159 8.63469 81.1087 7.92277 82.3798 7.41389C83.653 6.90502 85.057 6.65083 86.5951 6.65083C88.0957 6.65083 89.4067 6.89185 90.5303 7.37186C91.6534 7.85289 92.6157 8.49038 93.4168 9.28382L92.1583 11.0343C92.0845 11.1467 91.9885 11.2444 91.8727 11.3284C91.7565 11.4125 91.5952 11.455 91.391 11.455C91.1752 11.455 90.9574 11.371 90.733 11.2029C90.5101 11.0348 90.2245 10.8525 89.8803 10.6565C89.5351 10.4606 89.0999 10.2783 88.5733 10.1102C88.0471 9.94207 87.378 9.85802 86.5667 9.85802C85.6165 9.85802 84.7427 10.0241 83.9446 10.3547C83.1491 10.6864 82.4637 11.1603 81.8911 11.7766C81.3174 12.3928 80.8701 13.1422 80.5487 14.0242C80.2277 14.9063 80.0665 15.8982 80.0665 17C80.0665 18.1393 80.2277 19.152 80.5487 20.0391C80.8706 20.9257 81.3063 21.6725 81.8557 22.2796C82.4061 22.8868 83.0535 23.3506 83.799 23.6726C84.5451 23.9946 85.3467 24.1562 86.2039 24.1562C86.7159 24.1562 87.1803 24.1283 87.5948 24.0721C88.0098 24.0159 88.3918 23.9268 88.7416 23.8058C89.0909 23.6842 89.4219 23.5283 89.7337 23.3364C90.0456 23.1455 90.3564 22.9095 90.6637 22.629C90.7572 22.5455 90.8548 22.4781 90.9574 22.4265C91.0585 22.3759 91.1702 22.35 91.292 22.35Z" fill="#333333"/>
<path d="M112.954 27.1259H109.165V18.2745H99.6876V27.1259H95.8984V6.87514H99.6876V15.5863H109.165V6.87514H112.954V27.1259Z" fill="#333333"/>
<path d="M130 6.87514V9.87169H121.039V15.4881H128.1V18.3874H121.039V24.1151H130V27.1264H117.251V6.87514H130Z" fill="#333333"/>
<path d="M16.7907 0L13.1633 1.97677L26.9968 9.51168L16.7902 15.0729L6.58418 9.51168L9.82699 7.74453L16.7902 11.5391L16.7933 11.5371L20.4187 9.5618L9.82699 3.79454L0 9.44788L16.7902 19.0234L30.093 11.7745V22.8012L16.7902 30.0495L3.48794 22.8012V19.2623L16.7902 26.5102L26.6329 21.1475V17.197L16.7902 22.5602L0.023755 13.2389V24.864L16.7902 34L33.5572 24.864V9.13597L16.7907 0Z" fill="#8DD4D9"/>
</g>
</svg>
