<?xml version="1.0" encoding="UTF-8"?>
<svg id="Ebene_1" data-name="Ebene 1" xmlns="http://www.w3.org/2000/svg" viewBox="0 0 779.29 337.68">
  <defs>
    <style>
      .cls-1 {
        fill: #fff;
      }
    </style>
  </defs>
  <rect class="cls-1" y="311.7" width="389.64" height="25.97"/>
  <rect class="cls-1" x="389.64" width="389.65" height="25.97"/>
  <path class="cls-1" d="M83.15,116.07c32.37,0,58.26,26.5,58.26,59.42s-25.89,59.09-58.26,59.09-58.09-26.17-58.09-59.09,25.73-59.42,58.09-59.42ZM83.15,218.12c23.14,0,42.08-19.1,42.08-42.63s-18.93-42.96-42.08-42.96-41.91,19.59-41.91,42.96,18.93,42.63,41.91,42.63Z"/>
  <path class="cls-1" d="M137.98,229.5l49.68-110.78c.49-.99,1.94-1.81,2.75-1.81h1.62c.81,0,2.26.82,2.75,1.81l49.36,110.78c.97,2.14-.32,4.28-2.75,4.28h-10.19c-1.94,0-3.08-.99-3.72-2.47l-10.03-22.55h-52.92c-3.24,7.57-6.63,14.98-9.87,22.55-.48,1.15-1.78,2.47-3.72,2.47h-10.2c-2.43,0-3.72-2.14-2.75-4.28ZM211.29,194.61l-19.91-45.1h-.81l-19.74,45.1h40.46Z"/>
  <path class="cls-1" d="M228.36,120.87c-.65-2.3.64-3.95,2.91-3.95h10.84c1.3,0,2.59,1.15,2.91,2.3l19.58,75.55h.65l26.38-77.69c.33-.99,1.46-1.81,2.75-1.81h2.91c1.29,0,2.43.83,2.75,1.81l26.7,77.69h.64l19.26-75.55c.32-1.15,1.62-2.3,2.91-2.3h10.84c2.26,0,3.56,1.64,2.91,3.95l-30.59,110.61c-.32,1.32-1.62,2.3-2.91,2.3h-2.59c-1.13,0-2.43-.82-2.75-1.81l-28.48-81.81h-.81l-28,81.81c-.32.99-1.62,1.81-2.75,1.81h-2.59c-1.29,0-2.59-.99-2.91-2.3l-30.58-110.61Z"/>
  <path class="cls-1" d="M73.79,99.27c0,2.14-1.74,3.88-3.89,3.88h-10.35c-2.15,0-3.89-1.74-3.89-3.88v-10.36c0-2.14,1.74-3.89,3.89-3.89h10.35c2.15,0,3.89,1.74,3.89,3.89v10.36Z"/>
  <path class="cls-1" d="M110.8,99.27c0,2.14-1.74,3.88-3.88,3.88h-10.36c-2.15,0-3.89-1.74-3.89-3.88v-10.36c0-2.14,1.74-3.89,3.89-3.89h10.36c2.14,0,3.88,1.74,3.88,3.89v10.36Z"/>
  <g>
    <path class="cls-1" d="M432.22,116.53c7.41,0,13.34,5.97,13.34,13.39s-5.93,13.31-13.34,13.31-13.32-5.9-13.32-13.31,5.89-13.39,13.32-13.39ZM424.69,111.74c0-1.45,1.15-2.6,2.6-2.6s2.63,1.15,2.63,2.6-1.18,2.63-2.63,2.63-2.6-1.19-2.6-2.63ZM432.22,137.3c4.08,0,7.41-3.34,7.41-7.38s-3.34-7.46-7.41-7.46-7.39,3.38-7.39,7.46,3.34,7.38,7.39,7.38ZM434.51,111.74c0-1.45,1.15-2.6,2.6-2.6s2.63,1.15,2.63,2.6-1.19,2.63-2.63,2.63-2.6-1.19-2.6-2.63Z"/>
    <path class="cls-1" d="M448.58,139.34l1.74-3.08c.3-.48,1-.41,1.26-.22.15.08,2.82,2.04,5.26,2.04,1.49,0,2.56-.93,2.56-2.23,0-1.56-1.3-2.74-3.82-3.75-3.19-1.26-7.19-3.75-7.19-8.2,0-3.67,2.85-7.38,8.56-7.38,3.86,0,6.82,1.96,7.94,2.78.44.26.37.93.22,1.19l-1.9,2.86c-.25.41-.92.74-1.25.48-.33-.19-3.04-2.23-5.31-2.23-1.33,0-2.34.89-2.34,1.89,0,1.37,1.11,2.41,4.04,3.6,2.89,1.15,7.49,3.41,7.49,8.45,0,3.82-3.3,7.68-8.75,7.68-4.82,0-7.49-2-8.34-2.86-.37-.37-.48-.52-.19-1.04Z"/>
    <path class="cls-1" d="M473.73,122.35h-5.31c-.4,0-.7-.34-.7-.71v-4.04c0-.37.3-.71.7-.71h16.47c.4,0,.71.34.71.71v4.04c0,.37-.3.71-.71.71h-5.3v19.81c0,.37-.33.7-.71.7h-4.45c-.37,0-.7-.33-.7-.7v-19.81Z"/>
    <path class="cls-1" d="M489.31,117.6c0-.37.3-.71.71-.71h15.35c.41,0,.71.34.71.71v4.04c0,.37-.3.71-.71.71h-10.27v4.6h8.45c.37,0,.7.33.7.71v4.04c0,.41-.33.71-.7.71h-8.45v5.01h10.27c.41,0,.71.33.71.7v4.05c0,.37-.3.7-.71.7h-15.35c-.41,0-.71-.33-.71-.7v-24.55Z"/>
    <path class="cls-1" d="M511.05,117.6c0-.37.29-.71.7-.71h11.09c4.45,0,8.08,3.6,8.08,8.01,0,3.41-2.26,6.16-5.49,7.45l5.08,9.42c.26.48,0,1.08-.63,1.08h-4.93c-.3,0-.52-.19-.59-.33l-4.93-9.83h-2.56v9.46c0,.37-.33.7-.71.7h-4.41c-.41,0-.7-.33-.7-.7v-24.55ZM522.36,127.98c1.52,0,2.82-1.41,2.82-2.96s-1.3-2.82-2.82-2.82h-5.49v5.79h5.49Z"/>
    <path class="cls-1" d="M535.9,117.6c0-.37.29-.71.71-.71h11.09c4.45,0,8.08,3.6,8.08,8.01,0,3.41-2.26,6.16-5.48,7.45l5.08,9.42c.26.48,0,1.08-.64,1.08h-4.93c-.3,0-.52-.19-.59-.33l-4.93-9.83h-2.56v9.46c0,.37-.33.7-.71.7h-4.41c-.42,0-.71-.33-.71-.7v-24.55ZM547.21,127.98c1.52,0,2.82-1.41,2.82-2.96s-1.3-2.82-2.82-2.82h-5.49v5.79h5.49Z"/>
    <path class="cls-1" d="M560.46,117.6c0-.37.29-.71.71-.71h15.35c.41,0,.71.34.71.71v4.04c0,.37-.3.71-.71.71h-10.27v4.6h8.46c.37,0,.7.33.7.71v4.04c0,.41-.34.71-.7.71h-8.46v5.01h10.27c.41,0,.71.33.71.7v4.05c0,.37-.3.7-.71.7h-15.35c-.41,0-.71-.33-.71-.7v-24.55Z"/>
    <path class="cls-1" d="M582.19,117.6c0-.37.33-.71.7-.71h4.45c.37,0,.71.34.71.71v24.55c0,.37-.34.7-.71.7h-4.45c-.37,0-.7-.33-.7-.7v-24.55Z"/>
    <path class="cls-1" d="M605.93,116.53c3.71,0,6.45,1.15,8.97,3.45.34.3.34.74.04,1.04l-2.89,3c-.26.26-.67.26-.93,0-1.37-1.22-3.19-1.89-5-1.89-4.19,0-7.27,3.48-7.27,7.64s3.11,7.53,7.31,7.53c1.74,0,3.63-.63,4.97-1.78.26-.22.75-.22.96.04l2.89,3.08c.26.26.22.74-.04,1-2.52,2.45-5.71,3.6-9.01,3.6-7.42,0-13.39-5.9-13.39-13.31s5.97-13.39,13.39-13.39Z"/>
    <path class="cls-1" d="M619.4,117.6c0-.37.33-.71.7-.71h4.41c.41,0,.71.34.71.71v9.35h10.61v-9.35c0-.37.3-.71.7-.71h4.41c.37,0,.71.34.71.71v24.55c0,.37-.34.7-.71.7h-4.41c-.41,0-.7-.33-.7-.7v-9.76h-10.61v9.76c0,.37-.3.7-.71.7h-4.41c-.37,0-.7-.33-.7-.7v-24.55Z"/>
    <path class="cls-1" d="M648.03,117.6c0-.37.34-.71.71-.71h4.45c.37,0,.7.34.7.71v24.55c0,.37-.33.7-.7.7h-4.45c-.37,0-.71-.33-.71-.7v-24.55Z"/>
    <path class="cls-1" d="M658.79,139.34l1.74-3.08c.3-.48,1-.41,1.26-.22.15.08,2.82,2.04,5.27,2.04,1.48,0,2.56-.93,2.56-2.23,0-1.56-1.3-2.74-3.82-3.75-3.19-1.26-7.19-3.75-7.19-8.2,0-3.67,2.86-7.38,8.56-7.38,3.86,0,6.82,1.96,7.94,2.78.45.26.37.93.22,1.19l-1.89,2.86c-.26.41-.93.74-1.26.48-.33-.19-3.04-2.23-5.3-2.23-1.33,0-2.33.89-2.33,1.89,0,1.37,1.11,2.41,4.04,3.6,2.89,1.15,7.49,3.41,7.49,8.45,0,3.82-3.3,7.68-8.75,7.68-4.82,0-7.49-2-8.35-2.86-.37-.37-.48-.52-.18-1.04Z"/>
    <path class="cls-1" d="M692.1,116.53c3.71,0,6.46,1.15,8.98,3.45.34.3.34.74.04,1.04l-2.89,3c-.26.26-.67.26-.92,0-1.37-1.22-3.19-1.89-5.01-1.89-4.19,0-7.27,3.48-7.27,7.64s3.12,7.53,7.31,7.53c1.74,0,3.63-.63,4.97-1.78.25-.22.73-.22.96.04l2.89,3.08c.26.26.23.74-.04,1-2.52,2.45-5.71,3.6-9.01,3.6-7.42,0-13.38-5.9-13.38-13.31s5.97-13.39,13.38-13.39Z"/>
    <path class="cls-1" d="M705.57,117.6c0-.37.33-.71.7-.71h4.41c.41,0,.71.34.71.71v9.35h10.6v-9.35c0-.37.3-.71.71-.71h4.42c.37,0,.7.34.7.71v24.55c0,.37-.33.7-.7.7h-4.42c-.41,0-.71-.33-.71-.7v-9.76h-10.6v9.76c0,.37-.3.7-.71.7h-4.41c-.37,0-.7-.33-.7-.7v-24.55Z"/>
    <path class="cls-1" d="M733.27,117.6c0-.37.29-.71.7-.71h15.35c.41,0,.71.34.71.71v4.04c0,.37-.3.71-.71.71h-10.27v4.6h8.46c.37,0,.71.33.71.71v4.04c0,.41-.33.71-.71.71h-8.46v5.01h10.27c.41,0,.71.33.71.7v4.05c0,.37-.3.7-.71.7h-15.35c-.41,0-.7-.33-.7-.7v-24.55Z"/>
  </g>
  <g>
    <path class="cls-1" d="M449.27,187.37l11.61-24.96c.11-.22.37-.41.63-.41h.37c.26,0,.52.19.63.41l11.6,24.96c.22.48-.07.96-.63.96h-4.12c-.67,0-.96-.22-1.3-.93l-1.34-2.93h-10.09l-1.34,2.96c-.18.45-.59.89-1.34.89h-4.08c-.55,0-.85-.48-.63-.96ZM464.51,179.43l-2.82-6.12h-.03l-2.79,6.12h5.64Z"/>
    <path class="cls-1" d="M477.16,163.26c0-.48.37-.89.89-.89h4.34c.48,0,.89.41.89.89v9.75l8.23-10.27c.15-.19.48-.37.7-.37h4.68c.7,0,1.07.81.67,1.37l-8.68,10.87,9.46,12.31c.41.56,0,1.37-.71,1.37h-5.12c-.26,0-.59-.15-.66-.26l-8.57-11.65v11.05c0,.49-.41.89-.89.89h-4.34c-.52,0-.89-.41-.89-.89v-24.18Z"/>
    <path class="cls-1" d="M499.9,187.37l11.6-24.96c.11-.22.37-.41.63-.41h.37c.26,0,.52.19.63.41l11.6,24.96c.22.48-.07.96-.63.96h-4.12c-.67,0-.96-.22-1.3-.93l-1.33-2.93h-10.09l-1.34,2.96c-.18.45-.59.89-1.33.89h-4.08c-.56,0-.85-.48-.63-.96ZM515.14,179.43l-2.82-6.12h-.04l-2.78,6.12h5.64Z"/>
    <path class="cls-1" d="M526.68,163.07c0-.37.3-.7.67-.7h9.05c7.16,0,13.02,5.82,13.02,12.94s-5.86,13.02-13.02,13.02h-9.05c-.37,0-.67-.33-.67-.7v-24.55ZM536.03,182.84c4.19,0,7.23-3.3,7.23-7.53s-3.04-7.49-7.23-7.49h-3.56v15.02h3.56Z"/>
    <path class="cls-1" d="M553.94,163.07c0-.37.3-.7.7-.7h15.36c.41,0,.7.34.7.7v4.04c0,.37-.29.7-.7.7h-10.27v4.6h8.46c.37,0,.7.34.7.71v4.04c0,.41-.33.71-.7.71h-8.46v5.01h10.27c.41,0,.7.33.7.7v4.04c0,.37-.29.7-.7.7h-15.36c-.4,0-.7-.33-.7-.7v-24.55Z"/>
    <path class="cls-1" d="M578.24,162.59c.04-.34.38-.59.67-.59h.59c.18,0,.52.15.63.37l8.61,16.02h.08l8.6-16.02c.11-.22.45-.37.63-.37h.59c.3,0,.63.26.67.59l4.19,24.92c.07.48-.26.81-.71.81h-4.38c-.34,0-.67-.29-.71-.59l-1.67-11.46h-.07l-6.23,12.02c-.11.22-.45.41-.63.41h-.67c-.22,0-.52-.19-.63-.41l-6.27-12.02h-.07l-1.63,11.46c-.04.3-.33.59-.71.59h-4.38c-.44,0-.78-.33-.7-.81l4.19-24.92Z"/>
    <path class="cls-1" d="M608.26,163.07c0-.37.33-.7.7-.7h4.45c.37,0,.7.34.7.7v24.55c0,.37-.33.7-.7.7h-4.45c-.37,0-.7-.33-.7-.7v-24.55Z"/>
    <path class="cls-1" d="M620.49,163.07c0-.37.3-.7.7-.7h15.35c.41,0,.71.34.71.7v4.04c0,.37-.3.7-.71.7h-10.27v4.6h8.45c.37,0,.7.34.7.71v4.04c0,.41-.33.71-.7.71h-8.45v5.01h10.27c.41,0,.71.33.71.7v4.04c0,.37-.3.7-.71.7h-15.35c-.41,0-.7-.33-.7-.7v-24.55Z"/>
    <path class="cls-1" d="M650.43,163.07c0-.37.29-.7.67-.7h9.05c7.15,0,13.01,5.82,13.01,12.94s-5.86,13.02-13.01,13.02h-9.05c-.37,0-.67-.33-.67-.7v-24.55ZM659.77,182.84c4.19,0,7.24-3.3,7.24-7.53s-3.04-7.49-7.24-7.49h-3.56v15.02h3.56Z"/>
    <path class="cls-1" d="M677.69,163.07c0-.37.3-.7.71-.7h15.36c.41,0,.7.34.7.7v4.04c0,.37-.3.7-.7.7h-10.28v4.6h8.46c.37,0,.7.34.7.71v4.04c0,.41-.34.71-.7.71h-8.46v5.01h10.28c.41,0,.7.33.7.7v4.04c0,.37-.3.7-.7.7h-15.36c-.41,0-.71-.33-.71-.7v-24.55Z"/>
    <path class="cls-1" d="M699.43,163.07c0-.37.3-.7.71-.7h11.09c4.45,0,8.09,3.6,8.09,8.01,0,3.41-2.27,6.15-5.49,7.45l5.08,9.42c.26.48,0,1.08-.63,1.08h-4.93c-.3,0-.52-.19-.59-.33l-4.93-9.83h-2.56v9.46c0,.37-.33.7-.7.7h-4.41c-.41,0-.71-.33-.71-.7v-24.55ZM710.74,173.46c1.52,0,2.82-1.41,2.82-2.97s-1.3-2.82-2.82-2.82h-5.49v5.79h5.49Z"/>
  </g>
  <g>
    <path class="cls-1" d="M423.61,208.73c-.15-.52.15-.89.66-.89h4.34c.29,0,.59.26.67.52l3.19,12.57h.15l5.75-13.06c.11-.22.33-.41.63-.41h.67c.33,0,.56.19.63.41l5.75,13.06h.15l3.19-12.57c.08-.26.37-.52.67-.52h4.34c.53,0,.82.37.67.89l-7.01,24.92c-.08.3-.37.52-.67.52h-.6c-.26,0-.52-.18-.63-.41l-6.79-15.17h-.11l-6.75,15.17c-.11.22-.37.41-.63.41h-.59c-.3,0-.59-.22-.67-.52l-7.01-24.92Z"/>
    <path class="cls-1" d="M459.04,208.55c0-.37.33-.71.7-.71h4.45c.37,0,.7.34.7.71v24.55c0,.37-.33.7-.7.7h-4.45c-.37,0-.7-.33-.7-.7v-24.55Z"/>
    <path class="cls-1" d="M469.8,230.28l1.74-3.08c.3-.48,1-.41,1.26-.22.14.08,2.82,2.04,5.27,2.04,1.48,0,2.56-.93,2.56-2.23,0-1.56-1.3-2.75-3.82-3.74-3.19-1.26-7.2-3.75-7.2-8.2,0-3.67,2.85-7.38,8.57-7.38,3.85,0,6.83,1.97,7.94,2.78.45.26.37.93.22,1.19l-1.89,2.86c-.26.41-.93.74-1.26.48-.34-.19-3.04-2.23-5.3-2.23-1.34,0-2.34.89-2.34,1.89,0,1.37,1.12,2.41,4.04,3.6,2.9,1.15,7.49,3.41,7.49,8.46,0,3.82-3.3,7.68-8.75,7.68-4.82,0-7.49-2-8.34-2.86-.37-.37-.48-.52-.18-1.04Z"/>
    <path class="cls-1" d="M490.12,230.28l1.74-3.08c.3-.48,1-.41,1.26-.22.15.08,2.82,2.04,5.27,2.04,1.49,0,2.56-.93,2.56-2.23,0-1.56-1.29-2.75-3.82-3.74-3.19-1.26-7.19-3.75-7.19-8.2,0-3.67,2.85-7.38,8.56-7.38,3.86,0,6.83,1.97,7.94,2.78.44.26.37.93.22,1.19l-1.89,2.86c-.26.41-.93.74-1.26.48-.33-.19-3.04-2.23-5.31-2.23-1.33,0-2.33.89-2.33,1.89,0,1.37,1.11,2.41,4.04,3.6,2.89,1.15,7.5,3.41,7.5,8.46,0,3.82-3.3,7.68-8.75,7.68-4.82,0-7.49-2-8.34-2.86-.37-.37-.48-.52-.19-1.04Z"/>
    <path class="cls-1" d="M511.93,208.55c0-.37.3-.71.7-.71h15.36c.41,0,.71.34.71.71v4.04c0,.37-.3.7-.71.7h-10.27v4.6h8.45c.37,0,.7.33.7.71v4.04c0,.41-.33.71-.7.71h-8.45v5.01h10.27c.41,0,.71.33.71.7v4.04c0,.37-.3.7-.71.7h-15.36c-.41,0-.7-.33-.7-.7v-24.55Z"/>
    <path class="cls-1" d="M533.64,208.14c0-.37.33-.67.7-.67h.93l14.8,14.24h.04v-13.17c0-.37.3-.71.7-.71h4.45c.37,0,.71.34.71.71v24.96c0,.37-.34.67-.71.67h-.59c-.11,0-.41-.11-.49-.18l-14.65-14.72h-.04v13.83c0,.37-.29.7-.7.7h-4.41c-.37,0-.7-.33-.7-.7l-.04-24.96Z"/>
    <path class="cls-1" d="M560.86,230.28l1.74-3.08c.3-.48,1-.41,1.26-.22.15.08,2.82,2.04,5.27,2.04,1.49,0,2.56-.93,2.56-2.23,0-1.56-1.3-2.75-3.82-3.74-3.19-1.26-7.19-3.75-7.19-8.2,0-3.67,2.85-7.38,8.56-7.38,3.86,0,6.83,1.97,7.94,2.78.45.26.37.93.22,1.19l-1.89,2.86c-.26.41-.92.74-1.26.48-.33-.19-3.04-2.23-5.3-2.23-1.34,0-2.34.89-2.34,1.89,0,1.37,1.12,2.41,4.04,3.6,2.9,1.15,7.5,3.41,7.5,8.46,0,3.82-3.3,7.68-8.76,7.68-4.82,0-7.49-2-8.34-2.86-.37-.37-.48-.52-.18-1.04Z"/>
    <path class="cls-1" d="M594.17,207.47c3.71,0,6.45,1.15,8.98,3.45.33.3.33.74.03,1.04l-2.89,3.01c-.26.26-.67.26-.93,0-1.37-1.22-3.19-1.89-5-1.89-4.19,0-7.27,3.49-7.27,7.64s3.12,7.53,7.3,7.53c1.75,0,3.64-.63,4.97-1.78.26-.22.74-.22.96.04l2.89,3.08c.26.26.22.74-.04,1-2.52,2.45-5.71,3.6-9.01,3.6-7.42,0-13.39-5.9-13.39-13.31s5.97-13.39,13.39-13.39Z"/>
    <path class="cls-1" d="M607.64,208.55c0-.37.34-.71.71-.71h4.41c.41,0,.7.34.7.71v9.34h10.61v-9.34c0-.37.3-.71.71-.71h4.41c.37,0,.7.34.7.71v24.55c0,.37-.33.7-.7.7h-4.41c-.41,0-.71-.33-.71-.7v-9.75h-10.61v9.75c0,.37-.3.7-.7.7h-4.41c-.37,0-.71-.33-.71-.7v-24.55Z"/>
    <path class="cls-1" d="M632.94,232.84l11.61-24.96c.12-.22.37-.41.63-.41h.37c.26,0,.52.19.63.41l11.61,24.96c.22.48-.08.96-.63.96h-4.12c-.67,0-.96-.22-1.3-.92l-1.34-2.93h-10.08l-1.34,2.96c-.18.44-.59.89-1.33.89h-4.08c-.55,0-.85-.48-.63-.96ZM648.18,224.9l-2.82-6.12h-.04l-2.78,6.12h5.63Z"/>
    <path class="cls-1" d="M660.83,208.55c0-.37.3-.71.71-.71h15.36c.41,0,.7.34.7.71v4.04c0,.37-.3.7-.7.7h-10.28v5.34h8.46c.37,0,.71.33.71.7v4.05c0,.37-.33.7-.71.7h-8.46v9.01c0,.37-.33.7-.71.7h-4.37c-.41,0-.71-.33-.71-.7v-24.55Z"/>
    <path class="cls-1" d="M686.18,213.29h-5.3c-.41,0-.7-.33-.7-.7v-4.04c0-.37.3-.71.7-.71h16.47c.41,0,.71.34.71.71v4.04c0,.37-.3.7-.71.7h-5.3v19.81c0,.37-.34.7-.71.7h-4.44c-.37,0-.71-.33-.71-.7v-19.81Z"/>
    <path class="cls-1" d="M701.33,208.55c0-.37.3-.71.71-.71h15.35c.41,0,.7.34.7.71v4.04c0,.37-.3.7-.7.7h-10.28v4.6h8.45c.37,0,.71.33.71.71v4.04c0,.41-.34.71-.71.71h-8.45v5.01h10.28c.41,0,.7.33.7.7v4.04c0,.37-.3.7-.7.7h-15.35c-.4,0-.71-.33-.71-.7v-24.55Z"/>
    <path class="cls-1" d="M723.04,208.14c0-.37.33-.67.71-.67h.93l14.8,14.24h.04v-13.17c0-.37.3-.71.7-.71h4.45c.37,0,.71.34.71.71v24.96c0,.37-.33.67-.71.67h-.59c-.11,0-.41-.11-.49-.18l-14.65-14.72h-.03v13.83c0,.37-.3.7-.71.7h-4.42c-.37,0-.71-.33-.71-.7l-.04-24.96Z"/>
  </g>
</svg>