<svg xmlns="http://www.w3.org/2000/svg" width="24" height="37" viewBox="0 0 24 37" fill="none">
  <path d="M20.2009 35.8325L20.2028 35.8307L22.8283 33.2183L23.1798 33.5716L22.8283 33.2183C23.725 32.3262 23.7222 30.8887 22.8302 30.0107L22.8283 30.0088L11.6292 18.866L11.273 18.5116L11.6292 18.1571L22.8283 7.01435C23.725 6.12222 23.7222 4.68471 22.8302 3.80665L22.8302 3.80668L22.826 3.80243L20.2133 1.16824C19.3152 0.275843 17.8669 0.278926 16.9833 1.16745L16.9815 1.16935L1.18186 16.8894L1.17998 16.8913C0.274954 17.7823 0.274988 19.2198 1.17024 20.1106L16.9698 35.8307C17.8679 36.7242 19.317 36.7214 20.2009 35.8325Z" fill="#3B89AD" stroke="white"/>
</svg>