<svg xmlns="http://www.w3.org/2000/svg" width="24" height="37" viewBox="0 0 24 37" fill="none">
  <path d="M3.7991 35.8325L3.79721 35.8307L1.17168 33.2183L0.820184 33.5716L1.17168 33.2183C0.275049 32.3262 0.277796 30.8887 1.16979 30.0107L1.17168 30.0088L12.3708 18.866L12.727 18.5116L12.3708 18.1571L1.17168 7.01435C0.275048 6.12222 0.277796 4.68471 1.16978 3.80665L1.16981 3.80668L1.17402 3.80243L3.7867 1.16824C4.68481 0.275843 6.13313 0.278926 7.01666 1.16745L7.01855 1.16935L22.8181 16.8894L22.82 16.8913C23.725 17.7823 23.725 19.2198 22.8298 20.1106L7.03017 35.8307C6.13214 36.7242 4.68298 36.7214 3.7991 35.8325Z" fill="#3B89AD" stroke="white"/>
</svg>
