<?xml version="1.0" standalone="no"?>
<!DOCTYPE svg PUBLIC "-//W3C//DTD SVG 20010904//EN"
 "http://www.w3.org/TR/2001/REC-SVG-20010904/DTD/svg10.dtd">
<svg version="1.0" xmlns="http://www.w3.org/2000/svg"
 width="1324.000000pt" height="1324.000000pt" viewBox="0 0 1324.000000 1324.000000"
 preserveAspectRatio="xMidYMid meet">
<metadata>
Created by potrace 1.11, written by Peter Selinger 2001-2013
</metadata>
<g transform="translate(0.000000,1324.000000) scale(0.100000,-0.100000)"
fill="#000000" stroke="none">
<path d="M3597 13234 c-1 -1 -49 -5 -106 -9 -57 -3 -111 -8 -120 -10 -9 -1
-43 -6 -76 -10 -52 -6 -156 -23 -249 -40 -189 -37 -470 -134 -671 -232 -141
-69 -366 -205 -440 -265 -5 -4 -28 -22 -50 -39 -329 -251 -621 -585 -849 -969
-47 -79 -152 -301 -199 -420 -39 -98 -106 -311 -121 -383 -3 -12 -7 -33 -10
-47 -29 -131 -53 -280 -62 -380 -3 -36 -7 -83 -9 -105 -6 -58 -6 -408 -1 -488
7 -95 28 -277 41 -337 3 -14 8 -41 11 -60 13 -80 75 -312 108 -407 126 -359
301 -670 553 -978 355 -435 767 -737 1251 -919 104 -40 251 -85 327 -101 11
-3 61 -14 110 -24 50 -11 108 -23 130 -26 22 -3 58 -8 80 -11 22 -3 51 -8 65
-10 164 -26 745 -25 891 1 13 3 40 7 59 9 375 51 749 178 1073 365 119 69 272
175 361 251 99 83 210 187 266 247 118 125 146 157 220 253 40 52 77 99 82
105 4 5 8 -704 7 -1575 0 -1494 -1 -1584 -17 -1560 -98 141 -339 401 -502 541
-253 217 -566 404 -855 511 -78 29 -185 66 -215 73 -8 3 -49 13 -90 25 -41 11
-113 27 -160 36 -47 9 -94 18 -105 20 -80 15 -237 34 -340 40 -74 4 -415 4
-470 0 -121 -9 -191 -18 -335 -41 -302 -48 -585 -142 -870 -288 -63 -33 -122
-65 -131 -73 -8 -8 -19 -14 -23 -14 -4 0 -48 -28 -99 -62 -361 -241 -669 -553
-919 -929 -43 -65 -78 -122 -78 -127 0 -6 -3 -12 -7 -14 -16 -6 -110 -190
-171 -333 -98 -230 -178 -496 -207 -695 -39 -258 -43 -320 -40 -610 1 -162 5
-304 7 -315 3 -11 9 -51 13 -90 15 -151 104 -536 141 -607 8 -16 12 -28 10
-28 -3 0 7 -28 20 -62 14 -35 31 -76 37 -93 6 -16 50 -106 97 -200 151 -299
335 -557 574 -805 306 -317 635 -539 1026 -693 104 -41 291 -101 344 -111 12
-2 39 -9 61 -14 22 -6 54 -14 70 -16 17 -3 41 -8 55 -11 61 -13 200 -33 275
-40 132 -13 247 -18 370 -18 140 0 372 10 411 17 12 2 45 7 75 11 30 3 90 13
134 20 44 8 94 17 111 20 47 7 221 54 289 76 33 11 67 22 75 24 8 2 51 17 95
35 240 94 447 207 649 355 114 82 142 106 245 200 157 144 309 313 412 459
l34 48 3 -641 2 -641 654 0 653 0 0 1762 c0 970 3 1786 7 1813 7 53 22 150 31
200 34 188 142 499 245 710 59 120 204 359 243 400 7 7 23 28 37 45 35 46 135
153 200 215 179 171 385 299 645 400 11 5 25 9 30 11 300 92 465 118 750 117
140 0 250 -8 382 -28 54 -8 190 -37 213 -45 14 -4 52 -16 85 -25 33 -10 74
-23 90 -30 17 -7 46 -18 65 -26 71 -26 236 -111 319 -166 419 -271 742 -721
924 -1288 58 -179 103 -374 123 -525 3 -25 8 -56 12 -70 3 -14 7 -792 8 -1730
2 -938 3 -1713 4 -1722 0 -17 22 -18 310 -18 l310 0 1 43 c0 23 0 760 0 1637
0 1477 -2 1704 -15 1822 -3 24 -8 66 -11 93 -7 62 -11 89 -36 235 -31 185
-132 527 -200 677 -10 24 -19 46 -19 49 0 3 -25 58 -56 122 -391 809 -1071
1374 -1884 1566 -131 31 -165 37 -325 57 -154 19 -544 16 -650 -5 -11 -2 -49
-7 -85 -11 -36 -4 -67 -8 -70 -10 -3 -2 -26 -6 -50 -10 -178 -26 -496 -132
-700 -235 -254 -128 -460 -278 -665 -486 -95 -96 -111 -114 -191 -221 l-62
-81 0 1454 c0 800 3 1454 6 1454 4 0 16 -13 27 -29 59 -84 293 -327 404 -421
236 -198 444 -334 696 -455 161 -77 391 -163 540 -201 17 -4 35 -8 40 -10 23
-7 253 -54 290 -59 22 -4 51 -8 65 -10 14 -2 54 -6 90 -10 36 -3 86 -8 112
-11 104 -12 442 -5 548 11 14 2 50 6 80 10 93 10 310 53 405 80 50 14 97 28
105 30 168 44 493 190 700 313 133 80 376 257 441 321 9 9 46 43 82 75 37 33
67 64 67 70 0 6 -98 109 -218 228 l-217 217 -61 -57 c-233 -220 -475 -373
-799 -505 -66 -27 -239 -84 -276 -91 -13 -2 -44 -9 -69 -16 -25 -7 -56 -14
-70 -16 -14 -2 -34 -6 -46 -9 -11 -2 -45 -7 -75 -11 -30 -3 -57 -8 -61 -10
-38 -23 -559 -22 -648 1 -8 2 -35 6 -60 9 -148 19 -358 77 -561 155 -31 12
-114 51 -184 86 -586 298 -1036 816 -1247 1435 -26 77 -75 260 -94 350 -4 19
-8 213 -10 430 -4 424 0 466 52 665 82 315 214 592 406 853 68 92 86 114 163
201 235 264 559 493 898 635 112 47 287 106 364 122 6 1 35 7 65 14 88 19 218
39 303 47 102 9 355 9 465 0 82 -7 104 -10 180 -23 72 -12 86 -15 120 -24 19
-5 46 -11 60 -13 34 -6 98 -24 167 -46 356 -116 694 -313 957 -559 l68 -65
222 222 221 222 -77 72 c-218 205 -461 375 -733 512 -140 70 -164 81 -285 128
-207 81 -450 143 -710 182 -24 4 -72 9 -185 20 -75 8 -390 8 -470 0 -450 -41
-816 -144 -1190 -334 -371 -189 -715 -463 -984 -783 -40 -49 -74 -88 -76 -88
-2 0 -3 249 -4 553 0 303 0 580 -1 615 l0 62 -660 0 -660 0 0 -642 0 -643 -33
47 c-121 170 -378 436 -565 586 -306 245 -636 416 -1002 521 -78 23 -153 43
-168 46 -96 20 -236 44 -287 50 -33 3 -71 8 -85 10 -68 12 -522 28 -533 19z
m443 -657 c14 -3 48 -8 75 -11 28 -3 59 -8 70 -10 11 -2 38 -7 60 -11 22 -4
51 -9 65 -12 89 -16 307 -85 430 -136 90 -37 299 -143 321 -163 8 -8 19 -14
23 -14 4 0 39 -22 79 -49 488 -330 834 -791 1012 -1347 14 -45 27 -90 30 -100
2 -11 12 -57 23 -104 11 -47 25 -117 31 -157 14 -89 15 -709 1 -784 -5 -30
-11 -65 -14 -79 -8 -45 -26 -124 -36 -160 -31 -111 -64 -216 -70 -230 -5 -8
-25 -58 -46 -110 -72 -181 -197 -397 -329 -570 -123 -160 -310 -345 -465 -461
-36 -27 -70 -53 -75 -57 -27 -22 -208 -133 -280 -171 -216 -114 -508 -214
-735 -251 -41 -7 -82 -14 -91 -15 -104 -20 -452 -26 -599 -11 -476 47 -945
240 -1323 543 -102 81 -315 294 -389 389 -63 79 -170 234 -212 308 -127 219
-234 496 -282 726 -3 14 -9 43 -14 65 -5 22 -12 63 -16 90 -3 28 -8 59 -10 70
-21 111 -21 525 1 634 2 12 6 42 9 66 3 23 10 62 15 86 5 24 12 58 15 76 12
65 76 274 116 374 296 750 947 1326 1715 1517 185 46 231 55 375 68 41 3 77 8
79 10 6 5 412 -3 441 -9z m-40 -6921 c52 -4 102 -9 110 -11 8 -2 35 -7 60 -10
146 -20 353 -77 520 -142 439 -173 795 -445 1103 -843 182 -235 353 -602 428
-915 45 -191 48 -226 47 -595 0 -348 -1 -358 -27 -485 -74 -350 -192 -634
-381 -915 -129 -192 -329 -410 -513 -559 -81 -65 -308 -221 -323 -221 -3 0
-31 -15 -62 -33 -103 -60 -406 -184 -492 -202 -8 -2 -44 -11 -80 -20 -78 -20
-96 -24 -133 -30 -16 -2 -40 -6 -55 -10 -55 -11 -75 -14 -145 -20 -40 -4 -88
-8 -107 -10 -49 -6 -294 -6 -360 0 -458 38 -853 176 -1229 428 -40 27 -81 55
-90 62 -9 8 -43 35 -76 62 -169 134 -322 295 -456 479 -68 93 -152 222 -154
234 0 3 -17 34 -37 70 -85 152 -189 431 -228 614 -28 127 -29 133 -36 186 -3
25 -8 54 -10 65 -7 35 -18 227 -18 310 -1 187 31 455 69 595 2 8 12 42 20 75
84 310 243 624 453 894 84 108 290 315 402 404 163 130 268 195 485 302 211
103 491 192 695 220 25 3 56 8 70 10 14 2 57 7 95 11 39 3 71 7 72 8 5 4 303
-2 383 -8z"/>
</g>
</svg>
